<?xml version="1.0" standalone="no"?>
<!DOCTYPE svg PUBLIC "-//W3C//DTD SVG 20010904//EN"
 "http://www.w3.org/TR/2001/REC-SVG-20010904/DTD/svg10.dtd">
<svg version="1.0" xmlns="http://www.w3.org/2000/svg"
 width="256.000000pt" height="88.000000pt" viewBox="0 0 256.000000 88.000000"
 preserveAspectRatio="xMidYMid meet">

<g transform="translate(0.000000,88.000000) scale(0.100000,-0.100000)"
fill="#000000" stroke="none">
<path d="M103 860 c-17 -10 -37 -28 -42 -39 -7 -13 -11 -145 -11 -383 0 -398
-1 -391 60 -423 25 -13 180 -15 1195 -15 1062 0 1169 1 1195 16 60 36 60 38
60 424 0 386 0 388 -60 424 -26 15 -133 16 -1197 16 -1139 0 -1169 -1 -1200
-20z m527 -111 c0 -56 -64 -129 -112 -129 -47 0 0 99 62 131 44 24 50 24 50
-2z m810 -134 c0 -43 -4 -75 -10 -75 -6 0 -10 32 -10 75 0 43 4 75 10 75 6 0
10 -32 10 -75z m330 2 l0 -74 -40 -1 c-34 -2 -42 2 -52 23 -8 19 -8 31 1 51 9
22 17 25 41 22 27 -4 30 -2 30 24 0 15 5 28 10 28 6 0 10 -31 10 -73z m465 18
c29 0 30 -1 32 -50 1 -48 1 -48 -6 -12 -5 21 -13 43 -19 49 -18 18 -40 -8 -45
-50 -2 -20 -4 -1 -4 43 0 45 2 67 6 50 5 -25 11 -30 36 -30z m-1230 31 c13 -9
19 -26 19 -51 0 -46 -31 -75 -80 -75 l-34 0 0 70 0 70 38 0 c21 0 47 -6 57
-14z m1148 -39 c-19 -12 -16 -64 5 -76 15 -9 15 -10 -5 -11 -20 0 -23 5 -23
39 0 22 -4 43 -10 46 -6 4 -6 12 2 24 10 17 12 17 28 2 13 -13 14 -18 3 -24z
m-1025 1 c7 -7 12 -24 12 -38 0 -33 -17 -50 -50 -50 -33 0 -50 17 -50 50 0 33
17 50 50 50 14 0 31 -5 38 -12z m47 -25 l8 -38 15 38 c8 20 18 37 22 37 4 0
14 -17 22 -37 l15 -38 8 38 c4 20 12 37 17 37 10 0 6 -28 -12 -75 -13 -34 -27
-32 -35 5 -4 17 -10 30 -15 30 -5 0 -11 -13 -15 -30 -8 -38 -31 -39 -39 -2 -3
15 -8 37 -12 50 -4 12 -2 22 4 22 5 0 13 -17 17 -37z m212 25 c15 -12 18 -88
4 -88 -6 0 -11 19 -13 43 -2 34 -7 42 -23 42 -16 0 -21 -8 -23 -42 -4 -59 -22
-54 -22 5 0 48 0 49 32 50 18 0 38 -4 45 -10z m161 0 c7 -7 12 -24 12 -38 0
-34 -17 -50 -52 -50 -37 0 -57 38 -40 75 13 27 58 35 80 13z m100 -38 l3 -46
-36 -2 c-24 -2 -37 2 -41 13 -8 20 13 45 37 45 30 0 22 28 -8 33 -21 4 -19 4
7 3 34 -1 35 -2 38 -46z m284 25 c17 -37 -3 -75 -40 -75 -35 0 -52 16 -52 50
0 34 17 50 52 50 21 0 32 -7 40 -25z m107 6 c14 -25 14 -81 1 -81 -5 0 -10 15
-10 33 0 41 -13 62 -34 54 -11 -4 -16 -19 -16 -47 0 -22 -4 -40 -10 -40 -5 0
-10 22 -10 48 0 48 0 48 34 50 26 2 38 -3 45 -17z m339 -8 c3 -20 -1 -23 -32
-23 -53 0 -42 -32 14 -43 18 -3 15 -5 -13 -6 -31 -1 -39 3 -49 24 -8 19 -8 31
0 51 10 21 18 25 45 22 24 -2 33 -8 35 -25z m-1908 -17 c29 -11 42 -10 78 2
64 21 137 12 170 -22 25 -25 26 -28 9 -37 -26 -15 -47 -63 -47 -109 0 -50 13
-77 52 -111 l30 -25 -21 -42 c-26 -52 -76 -109 -101 -117 -11 -3 -44 1 -73 11
-51 16 -57 16 -105 0 -28 -10 -61 -15 -71 -11 -33 10 -99 93 -120 150 -79 210
26 374 199 311z m614 -239 c20 -57 36 -109 36 -115 0 -26 -28 -10 -36 21 -9
30 -13 32 -54 32 -41 0 -45 -2 -54 -32 -5 -18 -15 -33 -22 -33 -19 0 -19 1 22
122 47 143 59 144 108 5z m653 91 c-2 -8 -16 -12 -34 -10 -61 6 -78 -56 -21
-73 35 -11 68 -46 68 -72 0 -48 -67 -79 -124 -57 -31 12 -17 26 19 20 71 -14
103 40 43 72 -54 29 -80 59 -73 85 10 33 34 47 83 47 30 0 42 -4 39 -12z m83
-27 c0 -12 8 -21 22 -23 32 -5 35 -28 4 -28 -24 0 -26 -4 -26 -41 0 -48 15
-79 37 -79 12 0 14 -3 6 -11 -6 -6 -21 -9 -34 -7 -26 4 -43 51 -37 105 3 22 0
33 -9 33 -7 0 -13 7 -13 15 0 8 7 15 16 15 8 0 12 5 9 10 -7 12 2 30 16 30 5
0 9 -9 9 -19z m-635 -31 c4 -6 15 -5 30 2 61 28 118 -37 95 -108 -17 -49 -77
-73 -108 -42 -9 9 -12 2 -12 -35 0 -35 -4 -47 -15 -47 -12 0 -15 20 -15 120 0
109 7 139 25 110z m195 -7 c0 -15 1 -15 18 0 67 61 149 -54 91 -127 -22 -28
-75 -36 -97 -14 -9 9 -12 1 -12 -36 0 -34 -4 -46 -12 -44 -13 5 -24 197 -14
225 8 19 26 16 26 -4z m645 -8 c76 -75 -34 -196 -112 -123 -52 49 -14 148 57
148 19 0 40 -9 55 -25z m85 8 c0 -15 1 -15 18 0 10 10 24 17 30 17 21 0 13
-25 -10 -35 -20 -9 -23 -19 -26 -72 -2 -47 -7 -63 -17 -63 -12 0 -15 17 -15
85 0 50 4 85 10 85 6 0 10 -7 10 -17z m199 -9 c12 -15 21 -35 21 -45 0 -16 -8
-19 -60 -19 -33 0 -60 -4 -60 -10 0 -23 42 -51 70 -48 16 1 31 -2 32 -7 2 -6
-15 -11 -38 -13 -58 -4 -89 22 -89 76 0 80 80 122 124 66z"/>
<path d="M1702 618 c-16 -16 -15 -43 3 -58 21 -18 47 5 43 39 -3 29 -27 38
-46 19z"/>
<path d="M930 609 l0 -61 28 6 c31 8 52 31 52 58 0 24 -35 58 -60 58 -18 0
-20 -7 -20 -61z"/>
<path d="M1067 624 c-12 -13 -8 -51 8 -64 21 -18 47 5 43 39 -3 26 -35 41 -51
25z"/>
<path d="M1492 618 c-27 -27 -2 -75 32 -62 12 5 16 16 14 38 -3 33 -25 45 -46
24z"/>
<path d="M1594 579 c-11 -18 13 -34 31 -19 8 7 15 16 15 21 0 13 -38 11 -46
-2z"/>
<path d="M1864 616 c-11 -28 0 -61 20 -61 27 0 44 30 30 53 -15 22 -43 27 -50
8z"/>
<path d="M2317 623 c-14 -13 -6 -23 18 -23 16 0 25 6 25 15 0 15 -31 21 -43 8z"/>
<path d="M1012 381 c-16 -52 -16 -51 19 -51 26 0 30 3 24 18 -3 9 -9 29 -12
45 -8 38 -18 34 -31 -12z"/>
<path d="M1212 364 c-31 -21 -31 -89 -1 -105 45 -24 88 25 68 79 -12 32 -42
44 -67 26z"/>
<path d="M1420 372 c-41 -13 -54 -77 -21 -106 25 -23 52 -17 70 15 25 45 -7
105 -49 91z"/>
<path d="M1942 364 c-42 -29 -19 -114 31 -114 20 0 47 38 47 67 0 22 -31 63
-48 63 -4 0 -18 -7 -30 -16z"/>
<path d="M2233 368 c-27 -35 -25 -38 21 -38 49 0 56 9 30 34 -19 19 -38 20
-51 4z"/>
</g>
</svg>
